<?xml version="1.0" standalone="no"?>
<!DOCTYPE svg PUBLIC "-//W3C//DTD SVG 20010904//EN"
 "http://www.w3.org/TR/2001/REC-SVG-20010904/DTD/svg10.dtd">
<svg version="1.0" xmlns="http://www.w3.org/2000/svg"
 width="300.000000pt" height="300.000000pt" viewBox="0 0 300.000000 300.000000"
 preserveAspectRatio="xMidYMid meet">
<metadata>
Created by potrace 1.10, written by Peter Selinger 2001-2011
</metadata>
<g transform="translate(0.000000,300.000000) scale(0.100000,-0.100000)"
fill="#000000" stroke="none">
<path d="M1443 1925 c-25 -31 -30 -34 -69 -28 -65 9 -100 -38 -75 -102 6 -15
1 -24 -22 -40 -17 -11 -35 -27 -40 -36 -16 -25 1 -69 33 -87 26 -15 29 -21 27
-65 -2 -43 1 -52 25 -70 24 -18 32 -19 62 -10 34 10 36 10 55 -23 34 -57 95
-55 126 5 14 28 16 29 50 18 31 -9 39 -8 63 10 24 18 27 27 25 70 -2 44 1 50
27 65 32 18 49 62 33 87 -5 9 -23 25 -40 36 -23 16 -28 25 -22 40 14 35 9 65
-12 86 -17 17 -29 20 -63 16 -39 -6 -44 -3 -69 28 -38 48 -76 48 -114 0z m94
-7 c30 -28 29 -40 -7 -60 -28 -16 -32 -16 -60 0 -35 20 -37 31 -10 60 26 28
48 28 77 0z m-133 -47 c3 -5 3 -23 0 -40 -5 -25 -13 -33 -42 -41 -27 -7 -38
-6 -44 3 -12 18 -9 62 4 75 14 14 74 16 82 3z m274 -3 c13 -13 16 -57 4 -75
-6 -9 -17 -10 -44 -3 -29 8 -37 16 -42 41 -3 17 -3 35 0 40 8 13 68 11 82 -3z
m-198 -39 c0 -11 -34 -29 -54 -29 -9 0 -13 6 -11 15 3 8 7 22 10 30 3 12 9 13
30 3 14 -6 25 -15 25 -19z m102 -4 c6 -28 -9 -33 -43 -15 -25 14 -24 25 4 37
27 13 33 10 39 -22z m-15 -67 c43 -42 45 -89 6 -130 -59 -62 -173 -21 -173 62
0 25 9 43 32 67 44 45 89 45 135 1z m-177 -2 c0 -13 -6 -29 -14 -35 -11 -10
-17 -7 -30 11 -25 35 -24 36 37 47 4 0 7 -10 7 -23z m279 8 c2 -2 -4 -15 -13
-29 -14 -21 -20 -24 -32 -14 -8 6 -14 22 -14 35 0 21 3 24 28 18 15 -4 29 -8
31 -10z m-336 -43 c16 -28 16 -31 0 -60 -21 -37 -23 -37 -57 -10 -32 25 -33
51 -4 79 29 27 41 25 61 -9z m395 9 c29 -28 28 -54 -4 -79 -34 -27 -36 -27
-57 10 -16 29 -16 32 0 60 20 34 32 36 61 9z m-350 -72 c17 -17 15 -48 -2 -48
-35 0 -45 11 -34 36 13 27 19 29 36 12z m280 -12 c11 -25 1 -36 -34 -36 -17 0
-19 31 -2 48 17 17 23 15 36 -12z m-267 -65 c4 -3 10 -20 13 -37 6 -28 4 -32
-19 -38 -54 -14 -84 17 -71 70 6 23 10 25 39 19 18 -4 35 -10 38 -14z m294 -2
c10 -30 -2 -67 -24 -74 -26 -8 -71 4 -70 19 3 37 17 61 39 67 41 11 48 10 55
-12z m-216 -13 c9 -11 6 -17 -14 -30 -27 -18 -24 -20 -40 29 -6 20 38 21 54 1z
m110 -16 c-10 -28 -11 -29 -35 -13 -19 12 -22 19 -13 29 6 8 22 14 35 14 21 0
22 -2 13 -30z m-48 -27 c16 -10 29 -20 29 -24 0 -16 -43 -59 -60 -59 -18 0
-60 43 -60 61 0 7 46 37 58 39 2 0 17 -8 33 -17z"/>
<path d="M1450 1740 c-29 -29 -26 -74 6 -99 15 -12 34 -21 44 -21 10 0 29 9
44 21 50 40 21 119 -44 119 -17 0 -39 -9 -50 -20z m78 -6 c24 -17 30 -62 10
-82 -7 -7 -24 -12 -38 -12 -33 0 -50 17 -50 51 0 24 30 59 50 59 3 0 16 -7 28
-16z"/>
<path d="M1480 1715 c-19 -23 -8 -50 20 -50 16 0 26 6 28 18 4 18 -14 47 -28
47 -4 0 -13 -7 -20 -15z"/>
<path d="M1850 1455 l0 -25 355 0 355 0 0 25 0 25 -355 0 -355 0 0 -25z"/>
<path d="M440 1445 l0 -25 355 0 355 0 0 25 0 25 -355 0 -355 0 0 -25z"/>
<path d="M1025 1170 l0 -130 24 0 24 0 -6 96 c-3 53 -3 93 1 90 3 -4 22 -39
43 -79 20 -39 44 -73 52 -75 11 -2 29 21 57 77 22 45 42 81 44 81 2 0 1 -43
-2 -95 -5 -95 -5 -95 19 -95 l24 0 0 130 0 131 -25 -3 c-20 -2 -33 -20 -70
-89 l-45 -87 -45 87 c-37 69 -51 87 -70 89 l-25 3 0 -131z"/>
<path d="M1425 1290 c-63 -26 -95 -123 -61 -188 31 -59 126 -84 181 -48 34 22
65 74 65 109 0 96 -98 164 -185 127z m110 -55 c32 -31 34 -91 4 -129 -16 -20
-29 -26 -60 -26 -56 0 -79 26 -79 89 0 42 4 53 26 70 36 28 79 27 109 -4z"/>
<path d="M1650 1170 c0 -128 0 -130 23 -130 21 0 22 2 19 92 -2 56 0 89 6 83
5 -5 37 -47 72 -92 39 -52 70 -83 81 -83 18 0 19 10 19 130 0 123 -1 130 -20
130 -17 0 -20 -8 -22 -92 l-3 -91 -69 91 c-98 130 -106 127 -106 -38z"/>
<path d="M1930 1170 l0 -130 25 0 25 0 0 130 0 130 -25 0 -25 0 0 -130z"/>
</g>
</svg>
