<?xml version="1.0" standalone="no"?>
<!DOCTYPE svg PUBLIC "-//W3C//DTD SVG 20010904//EN"
 "http://www.w3.org/TR/2001/REC-SVG-20010904/DTD/svg10.dtd">
<svg version="1.0" xmlns="http://www.w3.org/2000/svg"
 width="300.000000pt" height="300.000000pt" viewBox="0 0 300.000000 300.000000"
 preserveAspectRatio="xMidYMid meet">
<metadata>
Created by potrace 1.10, written by Peter Selinger 2001-2011
</metadata>
<g transform="translate(0.000000,300.000000) scale(0.100000,-0.100000)"
fill="#000000" stroke="none">
<path d="M1345 1500 c0 -231 3 -420 8 -420 4 0 7 189 7 420 0 231 -3 420 -7
420 -5 0 -8 -189 -8 -420z"/>
<path d="M712 1772 c-15 -15 -31 -35 -37 -45 -8 -14 -17 -15 -48 -8 -52 12
-92 -3 -107 -39 -11 -27 -10 -49 6 -102 3 -12 0 -18 -9 -18 -29 0 -77 -56 -77
-90 0 -34 48 -90 77 -90 10 0 13 -6 9 -16 -19 -49 -17 -90 5 -117 20 -27 26
-28 80 -25 58 3 59 3 84 -34 43 -64 105 -60 150 9 19 29 22 30 76 25 48 -4 60
-1 78 17 23 23 28 78 11 110 -7 15 -2 23 28 42 20 13 43 36 52 52 13 24 13 30
0 55 -9 15 -32 38 -52 51 -30 19 -35 27 -28 42 16 28 12 85 -7 108 -19 23 -59
30 -110 17 -26 -6 -32 -4 -38 13 -9 30 -63 71 -92 71 -14 0 -36 -12 -51 -28z
m99 -21 c38 -39 37 -52 -9 -78 -37 -21 -38 -21 -62 -2 -14 10 -31 19 -37 19
-17 0 -16 5 2 40 29 56 64 63 106 21z m-164 -59 c9 -6 9 -18 1 -50 -9 -37 -15
-43 -49 -52 -48 -13 -55 -10 -63 31 -9 48 15 79 62 79 20 0 42 -4 49 -8z m344
-16 c11 -23 5 -96 -7 -96 -3 0 -24 5 -47 11 -40 10 -44 14 -53 54 -12 51 -10
53 54 54 36 1 44 -3 53 -23z m-257 -29 c17 -13 16 -14 -17 -30 -59 -28 -65
-24 -46 31 11 33 18 33 63 -1z m132 -16 c7 -33 7 -34 -22 -27 -34 8 -65 36
-48 43 6 2 20 10 30 18 23 17 32 10 40 -34z m-15 -77 c29 -30 34 -42 34 -84 0
-42 -5 -54 -34 -84 -30 -31 -41 -36 -81 -36 -40 0 -52 5 -83 35 -33 32 -37 41
-37 86 0 45 4 55 34 85 29 29 41 34 83 34 43 0 53 -4 84 -36z m-232 -40 c-7
-13 -15 -24 -18 -24 -7 0 -43 61 -39 65 2 1 17 7 33 12 26 9 30 7 33 -10 2
-11 -2 -31 -9 -43z m348 42 c3 -2 -3 -19 -13 -37 l-17 -33 -18 23 c-11 13 -19
34 -19 46 0 22 3 23 31 15 18 -5 34 -11 36 -14z m-404 -49 c18 -34 18 -35 -3
-76 l-21 -42 -30 18 c-60 35 -63 86 -7 121 18 11 35 19 38 17 3 -2 13 -19 23
-38z m474 17 c46 -35 43 -78 -6 -111 l-34 -23 -23 40 -23 40 22 40 c12 22 24
40 26 40 2 0 19 -12 38 -26z m-419 -96 c15 -30 19 -53 9 -57 -12 -4 -68 10
-65 17 2 4 10 19 17 35 17 33 24 34 39 5z m337 -9 c19 -36 18 -37 -24 -49 -29
-8 -31 -7 -31 17 0 22 24 63 36 63 2 0 11 -14 19 -31z m-354 -69 c32 -9 38
-16 47 -52 13 -50 6 -58 -49 -58 -21 0 -42 7 -50 16 -20 24 -13 104 9 104 4 0
23 -5 43 -10z m394 -24 c13 -68 -16 -95 -88 -82 l-33 6 10 45 c9 38 16 47 41
54 55 16 64 13 70 -23z m-272 -5 l28 -18 -33 -21 c-35 -23 -40 -20 -52 31 -5
22 -3 27 11 27 10 0 31 -8 46 -19z m143 -13 c-8 -42 -10 -43 -46 -28 -35 14
-35 29 1 47 41 21 52 17 45 -19z m-26 -73 c0 -16 -29 -54 -51 -65 -11 -6 -28
-8 -39 -5 -22 7 -69 77 -54 82 5 2 23 11 39 22 29 18 31 18 67 -3 21 -12 38
-26 38 -31z"/>
<path d="M709 1531 c-36 -36 -38 -79 -6 -115 34 -40 77 -43 115 -11 64 54 26
155 -58 155 -12 0 -35 -13 -51 -29z m86 -3 c48 -22 46 -97 -4 -118 -33 -13
-64 -2 -81 30 -16 29 -12 49 15 75 27 28 34 30 70 13z"/>
<path d="M743 1503 c-7 -2 -13 -18 -13 -34 0 -22 6 -30 25 -35 29 -7 55 10 55
35 0 33 -32 49 -67 34z m42 -33 c0 -8 -8 -16 -17 -18 -13 -2 -18 3 -18 18 0
15 5 20 18 18 9 -2 17 -10 17 -18z"/>
<path d="M2034 1720 c-11 -4 -28 -20 -37 -34 -15 -22 -17 -47 -12 -190 5 -181
10 -200 61 -216 41 -14 79 -4 104 27 17 22 19 42 19 179 1 187 -8 217 -66 233
-44 12 -41 12 -69 1z m71 -72 c3 -13 4 -88 3 -168 -3 -144 -3 -145 -27 -148
-13 -2 -27 2 -32 10 -9 14 -11 306 -3 320 3 4 16 8 29 8 17 0 26 -7 30 -22z"/>
<path d="M1660 1502 l0 -220 26 -5 c17 -3 28 0 31 10 3 8 3 78 0 155 -3 77 -2
136 3 132 4 -5 18 -65 30 -134 28 -160 28 -160 50 -160 15 0 21 16 35 93 9 50
19 116 22 145 11 105 23 60 23 -87 l0 -151 31 0 c28 0 31 3 25 24 -3 13 -6
112 -6 220 l-1 196 -40 0 c-21 0 -39 -1 -39 -2 0 -2 -9 -57 -20 -123 -11 -66
-20 -132 -20 -147 0 -64 -17 -18 -45 120 l-30 147 -37 3 -38 3 0 -219z"/>
<path d="M2222 1498 l3 -223 25 0 25 0 -4 164 c-2 117 0 161 8 157 6 -4 11
-17 12 -29 0 -12 15 -80 33 -152 l32 -130 32 -3 32 -3 0 220 0 221 -31 0 -32
0 7 -142 c8 -145 -1 -173 -22 -73 -5 28 -18 87 -28 133 l-18 82 -38 0 -38 0 2
-222z"/>
<path d="M2473 1503 l2 -218 30 0 29 0 0 215 0 215 -32 3 -32 3 3 -218z"/>
</g>
</svg>
